<mxfile host="app.diagrams.net" modified="2020-10-23T02:05:17.014Z" agent="5.0 (Windows)" etag="f5UXE7yhRFtnWO3gYO_W" version="13.8.1" type="github">
  <diagram id="gFrdL6GMZhIGF4n0Ffj0" name="Page-1">
    <mxGraphModel dx="841" dy="1081" grid="1" gridSize="10" guides="1" tooltips="1" connect="1" arrows="1" fold="1" page="1" pageScale="1" pageWidth="1100" pageHeight="850" math="0" shadow="0">
      <root>
        <mxCell id="0" />
        <mxCell id="1" parent="0" />
        <mxCell id="NH4Tdb44Rinhd6w1rqYS-10" style="rounded=0;orthogonalLoop=1;jettySize=auto;html=1;strokeWidth=1;" edge="1" parent="1" source="NH4Tdb44Rinhd6w1rqYS-1">
          <mxGeometry relative="1" as="geometry">
            <mxPoint x="320" y="260" as="targetPoint" />
          </mxGeometry>
        </mxCell>
        <mxCell id="NH4Tdb44Rinhd6w1rqYS-11" style="edgeStyle=none;rounded=0;orthogonalLoop=1;jettySize=auto;html=1;strokeWidth=1;" edge="1" parent="1" source="NH4Tdb44Rinhd6w1rqYS-1">
          <mxGeometry relative="1" as="geometry">
            <mxPoint x="320" y="420" as="targetPoint" />
          </mxGeometry>
        </mxCell>
        <mxCell id="NH4Tdb44Rinhd6w1rqYS-1" value="" style="ellipse;whiteSpace=wrap;html=1;aspect=fixed;" vertex="1" parent="1">
          <mxGeometry x="200" y="320" width="40" height="40" as="geometry" />
        </mxCell>
        <mxCell id="NH4Tdb44Rinhd6w1rqYS-2" value="" style="endArrow=none;html=1;strokeWidth=3;" edge="1" parent="1">
          <mxGeometry width="50" height="50" relative="1" as="geometry">
            <mxPoint x="120" y="360" as="sourcePoint" />
            <mxPoint x="120" y="320" as="targetPoint" />
          </mxGeometry>
        </mxCell>
        <mxCell id="NH4Tdb44Rinhd6w1rqYS-3" value="" style="endArrow=classic;html=1;strokeWidth=1;" edge="1" parent="1" target="NH4Tdb44Rinhd6w1rqYS-1">
          <mxGeometry width="50" height="50" relative="1" as="geometry">
            <mxPoint x="120" y="340" as="sourcePoint" />
            <mxPoint x="290" y="360" as="targetPoint" />
          </mxGeometry>
        </mxCell>
        <mxCell id="NH4Tdb44Rinhd6w1rqYS-13" style="edgeStyle=none;rounded=0;orthogonalLoop=1;jettySize=auto;html=1;strokeWidth=1;" edge="1" parent="1" source="NH4Tdb44Rinhd6w1rqYS-4">
          <mxGeometry relative="1" as="geometry">
            <mxPoint x="520.0000000000001" y="259.9999999999999" as="targetPoint" />
          </mxGeometry>
        </mxCell>
        <mxCell id="NH4Tdb44Rinhd6w1rqYS-4" value="" style="ellipse;whiteSpace=wrap;html=1;aspect=fixed;" vertex="1" parent="1">
          <mxGeometry x="400" y="240" width="40" height="40" as="geometry" />
        </mxCell>
        <mxCell id="NH4Tdb44Rinhd6w1rqYS-5" value="" style="endArrow=none;html=1;strokeWidth=3;" edge="1" parent="1">
          <mxGeometry width="50" height="50" relative="1" as="geometry">
            <mxPoint x="320" y="279.9999999999999" as="sourcePoint" />
            <mxPoint x="320" y="239.9999999999999" as="targetPoint" />
          </mxGeometry>
        </mxCell>
        <mxCell id="NH4Tdb44Rinhd6w1rqYS-6" value="" style="endArrow=classic;html=1;strokeWidth=1;" edge="1" target="NH4Tdb44Rinhd6w1rqYS-4" parent="1">
          <mxGeometry width="50" height="50" relative="1" as="geometry">
            <mxPoint x="320" y="259.9999999999999" as="sourcePoint" />
            <mxPoint x="490" y="280" as="targetPoint" />
          </mxGeometry>
        </mxCell>
        <mxCell id="NH4Tdb44Rinhd6w1rqYS-15" style="edgeStyle=none;rounded=0;orthogonalLoop=1;jettySize=auto;html=1;strokeWidth=1;" edge="1" parent="1" source="NH4Tdb44Rinhd6w1rqYS-7">
          <mxGeometry relative="1" as="geometry">
            <mxPoint x="519.4100000000001" y="419.9999999999999" as="targetPoint" />
          </mxGeometry>
        </mxCell>
        <mxCell id="NH4Tdb44Rinhd6w1rqYS-7" value="" style="ellipse;whiteSpace=wrap;html=1;aspect=fixed;" vertex="1" parent="1">
          <mxGeometry x="399.41" y="400" width="40" height="40" as="geometry" />
        </mxCell>
        <mxCell id="NH4Tdb44Rinhd6w1rqYS-8" value="" style="endArrow=none;html=1;strokeWidth=3;" edge="1" parent="1">
          <mxGeometry width="50" height="50" relative="1" as="geometry">
            <mxPoint x="319.41" y="439.9999999999999" as="sourcePoint" />
            <mxPoint x="319.41" y="399.9999999999999" as="targetPoint" />
          </mxGeometry>
        </mxCell>
        <mxCell id="NH4Tdb44Rinhd6w1rqYS-9" value="" style="endArrow=classic;html=1;strokeWidth=1;" edge="1" target="NH4Tdb44Rinhd6w1rqYS-7" parent="1">
          <mxGeometry width="50" height="50" relative="1" as="geometry">
            <mxPoint x="319.41" y="419.9999999999999" as="sourcePoint" />
            <mxPoint x="489.41" y="440" as="targetPoint" />
          </mxGeometry>
        </mxCell>
        <mxCell id="NH4Tdb44Rinhd6w1rqYS-12" value="" style="endArrow=none;html=1;strokeWidth=3;" edge="1" parent="1">
          <mxGeometry width="50" height="50" relative="1" as="geometry">
            <mxPoint x="520" y="279.9999999999999" as="sourcePoint" />
            <mxPoint x="520" y="239.9999999999999" as="targetPoint" />
          </mxGeometry>
        </mxCell>
        <mxCell id="NH4Tdb44Rinhd6w1rqYS-14" value="" style="endArrow=none;html=1;strokeWidth=3;" edge="1" parent="1">
          <mxGeometry width="50" height="50" relative="1" as="geometry">
            <mxPoint x="519.4100000000001" y="439.9999999999999" as="sourcePoint" />
            <mxPoint x="519.4100000000001" y="399.9999999999999" as="targetPoint" />
          </mxGeometry>
        </mxCell>
        <mxCell id="NH4Tdb44Rinhd6w1rqYS-16" style="edgeStyle=none;rounded=0;orthogonalLoop=1;jettySize=auto;html=1;strokeWidth=1;" edge="1" source="NH4Tdb44Rinhd6w1rqYS-17" parent="1">
          <mxGeometry relative="1" as="geometry">
            <mxPoint x="720.0000000000001" y="420" as="targetPoint" />
          </mxGeometry>
        </mxCell>
        <mxCell id="NH4Tdb44Rinhd6w1rqYS-17" value="" style="ellipse;whiteSpace=wrap;html=1;aspect=fixed;" vertex="1" parent="1">
          <mxGeometry x="600" y="400" width="40" height="40" as="geometry" />
        </mxCell>
        <mxCell id="NH4Tdb44Rinhd6w1rqYS-18" value="" style="endArrow=none;html=1;strokeWidth=3;" edge="1" parent="1">
          <mxGeometry width="50" height="50" relative="1" as="geometry">
            <mxPoint x="720.0000000000001" y="440" as="sourcePoint" />
            <mxPoint x="720.0000000000001" y="400" as="targetPoint" />
          </mxGeometry>
        </mxCell>
        <mxCell id="NH4Tdb44Rinhd6w1rqYS-19" value="" style="endArrow=classic;html=1;strokeWidth=1;" edge="1" target="NH4Tdb44Rinhd6w1rqYS-17" parent="1">
          <mxGeometry width="50" height="50" relative="1" as="geometry">
            <mxPoint x="520.0000000000002" y="420" as="sourcePoint" />
            <mxPoint x="690" y="440" as="targetPoint" />
          </mxGeometry>
        </mxCell>
        <mxCell id="NH4Tdb44Rinhd6w1rqYS-20" value="" style="endArrow=classic;html=1;strokeWidth=1;" edge="1" target="NH4Tdb44Rinhd6w1rqYS-21" parent="1">
          <mxGeometry width="50" height="50" relative="1" as="geometry">
            <mxPoint x="519.4100000000002" y="260" as="sourcePoint" />
            <mxPoint x="689.41" y="280" as="targetPoint" />
          </mxGeometry>
        </mxCell>
        <mxCell id="NH4Tdb44Rinhd6w1rqYS-21" value="" style="ellipse;whiteSpace=wrap;html=1;aspect=fixed;" vertex="1" parent="1">
          <mxGeometry x="599.41" y="240" width="40" height="40" as="geometry" />
        </mxCell>
        <mxCell id="NH4Tdb44Rinhd6w1rqYS-22" value="" style="endArrow=none;html=1;strokeWidth=3;" edge="1" parent="1">
          <mxGeometry width="50" height="50" relative="1" as="geometry">
            <mxPoint x="719.41" y="280" as="sourcePoint" />
            <mxPoint x="719.41" y="240" as="targetPoint" />
          </mxGeometry>
        </mxCell>
        <mxCell id="NH4Tdb44Rinhd6w1rqYS-23" style="edgeStyle=none;rounded=0;orthogonalLoop=1;jettySize=auto;html=1;strokeWidth=1;" edge="1" source="NH4Tdb44Rinhd6w1rqYS-21" parent="1">
          <mxGeometry relative="1" as="geometry">
            <mxPoint x="719.41" y="260" as="targetPoint" />
          </mxGeometry>
        </mxCell>
        <mxCell id="NH4Tdb44Rinhd6w1rqYS-27" style="edgeStyle=none;rounded=0;orthogonalLoop=1;jettySize=auto;html=1;strokeWidth=1;" edge="1" parent="1" source="NH4Tdb44Rinhd6w1rqYS-25">
          <mxGeometry relative="1" as="geometry">
            <mxPoint x="320" y="260" as="targetPoint" />
          </mxGeometry>
        </mxCell>
        <mxCell id="NH4Tdb44Rinhd6w1rqYS-25" value="" style="ellipse;whiteSpace=wrap;html=1;aspect=fixed;" vertex="1" parent="1">
          <mxGeometry x="500" y="140" width="40" height="40" as="geometry" />
        </mxCell>
        <mxCell id="NH4Tdb44Rinhd6w1rqYS-26" value="" style="endArrow=classic;html=1;strokeWidth=1;" edge="1" parent="1" target="NH4Tdb44Rinhd6w1rqYS-25">
          <mxGeometry width="50" height="50" relative="1" as="geometry">
            <mxPoint x="720" y="260" as="sourcePoint" />
            <mxPoint x="670" y="330" as="targetPoint" />
          </mxGeometry>
        </mxCell>
        <mxCell id="NH4Tdb44Rinhd6w1rqYS-28" value="" style="ellipse;whiteSpace=wrap;html=1;aspect=fixed;" vertex="1" parent="1">
          <mxGeometry x="500" y="500" width="40" height="40" as="geometry" />
        </mxCell>
        <mxCell id="NH4Tdb44Rinhd6w1rqYS-29" style="edgeStyle=none;rounded=0;orthogonalLoop=1;jettySize=auto;html=1;strokeWidth=1;" edge="1" parent="1" target="NH4Tdb44Rinhd6w1rqYS-28">
          <mxGeometry relative="1" as="geometry">
            <mxPoint x="730" y="430" as="targetPoint" />
            <mxPoint x="720" y="420" as="sourcePoint" />
          </mxGeometry>
        </mxCell>
        <mxCell id="NH4Tdb44Rinhd6w1rqYS-30" style="edgeStyle=none;rounded=0;orthogonalLoop=1;jettySize=auto;html=1;strokeWidth=1;" edge="1" parent="1" source="NH4Tdb44Rinhd6w1rqYS-28">
          <mxGeometry relative="1" as="geometry">
            <mxPoint x="320" y="420" as="targetPoint" />
            <mxPoint x="730" y="430" as="sourcePoint" />
          </mxGeometry>
        </mxCell>
        <mxCell id="NH4Tdb44Rinhd6w1rqYS-31" value="" style="ellipse;whiteSpace=wrap;html=1;aspect=fixed;" vertex="1" parent="1">
          <mxGeometry x="800" y="400" width="40" height="40" as="geometry" />
        </mxCell>
        <mxCell id="NH4Tdb44Rinhd6w1rqYS-32" value="" style="endArrow=classic;html=1;strokeWidth=1;" edge="1" target="NH4Tdb44Rinhd6w1rqYS-31" parent="1">
          <mxGeometry width="50" height="50" relative="1" as="geometry">
            <mxPoint x="720" y="420" as="sourcePoint" />
            <mxPoint x="890" y="440" as="targetPoint" />
          </mxGeometry>
        </mxCell>
        <mxCell id="NH4Tdb44Rinhd6w1rqYS-33" style="edgeStyle=none;rounded=0;orthogonalLoop=1;jettySize=auto;html=1;strokeWidth=1;" edge="1" source="NH4Tdb44Rinhd6w1rqYS-31" parent="1">
          <mxGeometry relative="1" as="geometry">
            <mxPoint x="920" y="340" as="targetPoint" />
          </mxGeometry>
        </mxCell>
        <mxCell id="NH4Tdb44Rinhd6w1rqYS-34" value="" style="endArrow=none;html=1;strokeWidth=3;" edge="1" parent="1">
          <mxGeometry width="50" height="50" relative="1" as="geometry">
            <mxPoint x="920" y="360" as="sourcePoint" />
            <mxPoint x="920" y="320" as="targetPoint" />
          </mxGeometry>
        </mxCell>
        <mxCell id="NH4Tdb44Rinhd6w1rqYS-35" value="" style="ellipse;whiteSpace=wrap;html=1;aspect=fixed;" vertex="1" parent="1">
          <mxGeometry x="799.5" y="240" width="40" height="40" as="geometry" />
        </mxCell>
        <mxCell id="NH4Tdb44Rinhd6w1rqYS-36" style="edgeStyle=none;rounded=0;orthogonalLoop=1;jettySize=auto;html=1;strokeWidth=1;" edge="1" source="NH4Tdb44Rinhd6w1rqYS-35" parent="1">
          <mxGeometry relative="1" as="geometry">
            <mxPoint x="920" y="340" as="targetPoint" />
          </mxGeometry>
        </mxCell>
        <mxCell id="NH4Tdb44Rinhd6w1rqYS-38" value="" style="endArrow=classic;html=1;strokeWidth=1;" edge="1" target="NH4Tdb44Rinhd6w1rqYS-35" parent="1">
          <mxGeometry width="50" height="50" relative="1" as="geometry">
            <mxPoint x="719.5" y="260" as="sourcePoint" />
            <mxPoint x="889.5" y="280" as="targetPoint" />
          </mxGeometry>
        </mxCell>
        <mxCell id="NH4Tdb44Rinhd6w1rqYS-39" value="" style="ellipse;whiteSpace=wrap;html=1;aspect=fixed;strokeColor=none;fillColor=#000000;" vertex="1" parent="1">
          <mxGeometry x="516" y="516" width="8" height="8" as="geometry" />
        </mxCell>
        <mxCell id="NH4Tdb44Rinhd6w1rqYS-40" value="" style="ellipse;whiteSpace=wrap;html=1;aspect=fixed;strokeColor=none;fillColor=#000000;" vertex="1" parent="1">
          <mxGeometry x="516" y="156" width="8" height="8" as="geometry" />
        </mxCell>
        <mxCell id="NH4Tdb44Rinhd6w1rqYS-41" value="&lt;div&gt;Llegan&lt;/div&gt;&lt;div&gt;votantes&lt;br&gt;&lt;/div&gt;" style="text;html=1;strokeColor=none;fillColor=none;align=right;verticalAlign=middle;whiteSpace=wrap;rounded=0;fontSize=11;" vertex="1" parent="1">
          <mxGeometry x="30" y="320" width="80" height="40" as="geometry" />
        </mxCell>
        <mxCell id="NH4Tdb44Rinhd6w1rqYS-42" value="Votantes esperan ser llamados" style="text;html=1;strokeColor=none;fillColor=none;align=left;verticalAlign=middle;whiteSpace=wrap;rounded=0;fontSize=11;" vertex="1" parent="1">
          <mxGeometry x="250" y="320" width="90" height="40" as="geometry" />
        </mxCell>
        <mxCell id="NH4Tdb44Rinhd6w1rqYS-43" value="&lt;div&gt;Pasa&lt;/div&gt;&lt;div&gt;a mesa 1&lt;/div&gt;" style="text;html=1;strokeColor=none;fillColor=none;align=center;verticalAlign=middle;whiteSpace=wrap;rounded=0;fontSize=11;" vertex="1" parent="1">
          <mxGeometry x="280" y="360" width="80" height="40" as="geometry" />
        </mxCell>
        <mxCell id="NH4Tdb44Rinhd6w1rqYS-44" value="&lt;div&gt;Pasa&lt;/div&gt;&lt;div&gt;a mesa 2&lt;br&gt;&lt;/div&gt;" style="text;html=1;strokeColor=none;fillColor=none;align=center;verticalAlign=middle;whiteSpace=wrap;rounded=0;fontSize=11;" vertex="1" parent="1">
          <mxGeometry x="280" y="280" width="80" height="40" as="geometry" />
        </mxCell>
        <mxCell id="NH4Tdb44Rinhd6w1rqYS-45" value="&lt;div&gt;Tomando datos en mesa 2&lt;br&gt;&lt;/div&gt;" style="text;html=1;strokeColor=none;fillColor=none;align=center;verticalAlign=middle;whiteSpace=wrap;rounded=0;fontSize=11;" vertex="1" parent="1">
          <mxGeometry x="379.40999999999997" y="280" width="80" height="40" as="geometry" />
        </mxCell>
        <mxCell id="NH4Tdb44Rinhd6w1rqYS-46" value="&lt;div&gt;Tomando datos en mesa 1&lt;br&gt;&lt;/div&gt;" style="text;html=1;strokeColor=none;fillColor=none;align=center;verticalAlign=middle;whiteSpace=wrap;rounded=0;fontSize=11;" vertex="1" parent="1">
          <mxGeometry x="379.40999999999997" y="360" width="80" height="40" as="geometry" />
        </mxCell>
        <mxCell id="NH4Tdb44Rinhd6w1rqYS-47" value="Autoridad de mesa 2 libre" style="text;html=1;strokeColor=none;fillColor=none;align=center;verticalAlign=middle;whiteSpace=wrap;rounded=0;fontSize=11;" vertex="1" parent="1">
          <mxGeometry x="480" y="180" width="80" height="40" as="geometry" />
        </mxCell>
        <mxCell id="NH4Tdb44Rinhd6w1rqYS-48" value="Autoridad de mesa 1 libre" style="text;html=1;strokeColor=none;fillColor=none;align=center;verticalAlign=middle;whiteSpace=wrap;rounded=0;fontSize=11;" vertex="1" parent="1">
          <mxGeometry x="480" y="460" width="80" height="40" as="geometry" />
        </mxCell>
        <mxCell id="NH4Tdb44Rinhd6w1rqYS-49" value="&lt;div&gt;Pasa a votar&lt;/div&gt;&lt;div&gt;en terminal 2&lt;br&gt;&lt;/div&gt;" style="text;html=1;strokeColor=none;fillColor=none;align=center;verticalAlign=middle;whiteSpace=wrap;rounded=0;fontSize=11;" vertex="1" parent="1">
          <mxGeometry x="480" y="280" width="80" height="40" as="geometry" />
        </mxCell>
        <mxCell id="NH4Tdb44Rinhd6w1rqYS-50" value="&lt;div&gt;Pasa a votar&lt;/div&gt;&lt;div&gt;en terminal 1&lt;br&gt;&lt;/div&gt;" style="text;html=1;strokeColor=none;fillColor=none;align=center;verticalAlign=middle;whiteSpace=wrap;rounded=0;fontSize=11;" vertex="1" parent="1">
          <mxGeometry x="480" y="360" width="80" height="40" as="geometry" />
        </mxCell>
        <mxCell id="NH4Tdb44Rinhd6w1rqYS-51" value="&lt;div&gt;Emitiendo voto&lt;br&gt;&lt;/div&gt;&lt;div&gt;en terminal 1&lt;br&gt;&lt;/div&gt;" style="text;html=1;strokeColor=none;fillColor=none;align=center;verticalAlign=middle;whiteSpace=wrap;rounded=0;fontSize=11;" vertex="1" parent="1">
          <mxGeometry x="580" y="360" width="80" height="40" as="geometry" />
        </mxCell>
        <mxCell id="NH4Tdb44Rinhd6w1rqYS-52" value="&lt;div&gt;Emitiendo voto&lt;br&gt;&lt;/div&gt;&lt;div&gt;en terminal 2&lt;br&gt;&lt;/div&gt;" style="text;html=1;strokeColor=none;fillColor=none;align=center;verticalAlign=middle;whiteSpace=wrap;rounded=0;fontSize=11;" vertex="1" parent="1">
          <mxGeometry x="580" y="280" width="80" height="40" as="geometry" />
        </mxCell>
        <mxCell id="NH4Tdb44Rinhd6w1rqYS-53" value="&lt;div&gt;Vuelve a firmar&lt;/div&gt;&lt;div&gt;en mesa 2&lt;br&gt;&lt;/div&gt;" style="text;html=1;strokeColor=none;fillColor=none;align=center;verticalAlign=middle;whiteSpace=wrap;rounded=0;fontSize=11;" vertex="1" parent="1">
          <mxGeometry x="680" y="280" width="80" height="40" as="geometry" />
        </mxCell>
        <mxCell id="NH4Tdb44Rinhd6w1rqYS-54" value="&lt;div&gt;Vuelve a firmar&lt;/div&gt;&lt;div&gt;en mesa 1&lt;br&gt;&lt;/div&gt;" style="text;html=1;strokeColor=none;fillColor=none;align=center;verticalAlign=middle;whiteSpace=wrap;rounded=0;fontSize=11;" vertex="1" parent="1">
          <mxGeometry x="680" y="360" width="80" height="40" as="geometry" />
        </mxCell>
        <mxCell id="NH4Tdb44Rinhd6w1rqYS-55" value="&lt;div&gt;Firmando&lt;/div&gt;&lt;div&gt;en mesa 1&lt;br&gt;&lt;/div&gt;" style="text;html=1;strokeColor=none;fillColor=none;align=center;verticalAlign=middle;whiteSpace=wrap;rounded=0;fontSize=11;" vertex="1" parent="1">
          <mxGeometry x="779.5" y="360" width="80" height="40" as="geometry" />
        </mxCell>
        <mxCell id="NH4Tdb44Rinhd6w1rqYS-56" value="&lt;div&gt;Firmando&lt;/div&gt;&lt;div&gt;en mesa 2&lt;br&gt;&lt;/div&gt;" style="text;html=1;strokeColor=none;fillColor=none;align=center;verticalAlign=middle;whiteSpace=wrap;rounded=0;fontSize=11;" vertex="1" parent="1">
          <mxGeometry x="780" y="280" width="80" height="40" as="geometry" />
        </mxCell>
        <mxCell id="NH4Tdb44Rinhd6w1rqYS-57" value="&lt;div&gt;Votante&lt;/div&gt;&lt;div&gt;se retira&lt;/div&gt;" style="text;html=1;strokeColor=none;fillColor=none;align=left;verticalAlign=middle;whiteSpace=wrap;rounded=0;fontSize=11;" vertex="1" parent="1">
          <mxGeometry x="930" y="320" width="50" height="40" as="geometry" />
        </mxCell>
      </root>
    </mxGraphModel>
  </diagram>
</mxfile>
